<?xml version="1.0" encoding="UTF-8" standalone="no"?>
<!-- Created with Inkscape (http://www.inkscape.org/) -->

<svg
   xmlns:dc="http://purl.org/dc/elements/1.1/"
   xmlns:cc="http://creativecommons.org/ns#"
   xmlns:rdf="http://www.w3.org/1999/02/22-rdf-syntax-ns#"
   xmlns:svg="http://www.w3.org/2000/svg"
   xmlns="http://www.w3.org/2000/svg"
   xmlns:sodipodi="http://sodipodi.sourceforge.net/DTD/sodipodi-0.dtd"
   xmlns:inkscape="http://www.inkscape.org/namespaces/inkscape"
   width="93.712418mm"
   height="71.012154mm"
   viewBox="0 0 93.712418 71.012154"
   version="1.1"
   id="svg3897"
   inkscape:version="0.92.4 (5da689c313, 2019-01-14)"
   sodipodi:docname="IC.svg">
  <defs
     id="defs3891">
    <clipPath
       clipPathUnits="userSpaceOnUse"
       id="clipPath7855">
      <rect
         style="fill:#cccccc;stroke-width:0.26458332"
         id="rect7857"
         width="161.77382"
         height="120.95238"
         x="14.363094"
         y="20.321428"
         transform="scale(-1,1)" />
    </clipPath>
  </defs>
  <sodipodi:namedview
     id="base"
     pagecolor="#ffffff"
     bordercolor="#666666"
     borderopacity="1.0"
     inkscape:pageopacity="0.0"
     inkscape:pageshadow="2"
     inkscape:zoom="1.4"
     inkscape:cx="113.37593"
     inkscape:cy="173.89124"
     inkscape:document-units="mm"
     inkscape:current-layer="layer1"
     showgrid="false"
     inkscape:window-width="1366"
     inkscape:window-height="715"
     inkscape:window-x="-8"
     inkscape:window-y="-8"
     inkscape:window-maximized="1"
     fit-margin-top="0"
     fit-margin-left="0"
     fit-margin-right="0"
     fit-margin-bottom="0" />
  <metadata
     id="metadata3894">
    <rdf:RDF>
      <cc:Work
         rdf:about="">
        <dc:format>image/svg+xml</dc:format>
        <dc:type
           rdf:resource="http://purl.org/dc/dcmitype/StillImage" />
        <dc:title />
      </cc:Work>
    </rdf:RDF>
  </metadata>
  <g
     inkscape:label="Ebene 1"
     inkscape:groupmode="layer"
     id="layer1"
     transform="translate(-0.30067118,-0.17886007)">
    <path
       style="fill:#1a1a1a;stroke:none;stroke-width:0.26458332px;stroke-linecap:butt;stroke-linejoin:miter;stroke-opacity:1"
       d="m 54.192375,66.581868 20.788693,0.188987 c 0,0 3.58474,4.256719 9.06197,4.066079 5.47722,-0.19064 9.23881,-4.294089 9.32523,-9.789108 0.0864,-5.49502 -5.06211,-9.167517 -9.56408,-9.194469 -4.50196,-0.02695 -7.68919,2.255296 -7.68919,2.255296 H 53.814399 c 0,0 -3.290673,-2.56517 -7.99589,-2.568728 -4.705217,-0.0036 -9.738244,4.955183 -9.734597,9.526896 0.0036,4.571712 3.926286,10.055793 10.015226,10.123463 6.088939,0.0677 8.093237,-4.608416 8.093237,-4.608416 z"
       id="path7859"
       inkscape:connector-curvature="0"
       sodipodi:nodetypes="cczszcczzzc" />
    <path
       style="fill:#f0f0f0;fill-opacity:1;stroke:none;stroke-width:0.26458332px;stroke-linecap:butt;stroke-linejoin:miter;stroke-opacity:1"
       d="m 27.862847,62.470989 6.88219,-9.488069 59.066561,-0.267269 V 9.4179889 H 70.024616 V 0.33082285 c 0,0 -17.656808,-0.368317 -25.858327,2.67269805 -6.081262,2.254852 -11.626037,6.842579 -16.036172,11.4257711 -6.968242,7.241681 -10.387473,11.198605 -16.036172,19.510675 -2.5538168,3.757946 -9.3831838,11.93136 -8.3521718,14.766641 1.692707,4.654945 6.080382,13.764382 6.080382,13.764382 z"
       id="path7867"
       inkscape:connector-curvature="0"
       sodipodi:nodetypes="ccccccsssscc" />
    <path
       style="fill:#ff2a2a;stroke:none;stroke-width:0.26458332px;stroke-linecap:butt;stroke-linejoin:miter;stroke-opacity:1"
       d="m 34.210499,40.554888 -3.541322,4.810851 63.142421,-0.133634 -2e-5,-4.677218 z"
       id="path7869"
       inkscape:connector-curvature="0"
       sodipodi:nodetypes="ccccc" />
    <path
       style="fill:#4d4d4d;fill-opacity:1;stroke:none;stroke-width:0.26458332px;stroke-linecap:butt;stroke-linejoin:miter;stroke-opacity:1"
       d="m 70.024616,0.33082085 23.826132,-0.01956 -0.0392,9.10673405 H 70.024616 Z"
       id="path7871"
       inkscape:connector-curvature="0"
       sodipodi:nodetypes="ccccc" />
    <path
       style="fill:#1a1a1a;stroke:none;stroke-width:0.26458332px;stroke-linecap:butt;stroke-linejoin:miter;stroke-opacity:1"
       d="m 37.9394,16.594518 -7.181549,9.921875 h 12.378722 l 6.52009,-9.921875 z"
       id="path7873"
       inkscape:connector-curvature="0"
       sodipodi:nodetypes="ccccc" />
    <path
       style="fill:#1a1a1a;fill-opacity:1;stroke:#000000;stroke-width:0.26458332px;stroke-linecap:butt;stroke-linejoin:miter;stroke-opacity:1"
       d="m 79.516778,18.484397 v 13.512649 l 14.3631,-0.09449 -0.0945,-13.607143 z"
       id="path7875"
       inkscape:connector-curvature="0"
       sodipodi:nodetypes="ccccc" />
    <path
       style="fill:#333333;stroke:none;stroke-width:0.26458332px;stroke-linecap:butt;stroke-linejoin:miter;stroke-opacity:1"
       d="m 0.33408618,55.421754 1.15260102,0.0167 v -1.219417 l 0.572253,0.0055 0.0291,1.197201 h 4.460061 l 3.9756348,2.171565 0.96885,-1.00226 -4.6438078,-6.681737 -4.744251,0.02421 -0.02247,1.086099 -0.612285,0.0018 -0.03349,-1.084503 -1.13561102,0.0058 z"
       id="path7877"
       inkscape:connector-curvature="0"
       sodipodi:nodetypes="ccccccccccccccc" />
  </g>
</svg>
