<?xml version="1.0" encoding="UTF-8"?>
<svg enable-background="new 0 0 500 500" version="1.1" viewBox="0 0 500 500" xml:space="preserve" xmlns="http://www.w3.org/2000/svg">
<g fill="#000000">
	<path class="st0" d="m249.9 476.8 90.7-279.1h-181.4l90.7 279.1z"/>
	<path class="st0" d="m32.1 197.7-27.6 84.8c-2.5 7.7 0.2 16.2 6.8 21l238.5 173.3-217.7-279.1z"/>
	<path class="st0" d="m32.1 197.7h127.1l-54.6-168.1c-2.8-8.6-15-8.6-17.9 0l-54.6 168.1z"/>
	<path class="st0" d="m467.6 197.7 27.6 84.8c2.5 7.7-0.2 16.2-6.8 21l-238.5 173.3 217.7-279.1z"/>
	<path class="st0" d="m467.6 197.7h-127.1l54.6-168.1c2.8-8.6 15-8.6 17.9 0l54.6 168.1z"/>
</g>
</svg>
