<svg version="1.1" xmlns="http://www.w3.org/2000/svg" width="512" height="1024" viewBox="0 0 512 1024">
<title></title>
<g id="icomoon-ignore">
</g>
<path d="M312.32 134.4c0 39.588-32.092 71.68-71.68 71.68s-71.68-32.092-71.68-71.68c0-39.588 32.092-71.68 71.68-71.68s71.68 32.092 71.68 71.68z"></path>
<path d="M28.16 546.56c194.133-302.933 175.787-311.467 248.32-313.6 42.24 1.28 43.52 12.8 115.2 69.12 88.32 64.853 81.92 65.707 80.64 136.96-0.427 85.76 5.547 79.36-62.72 111.36v-144.64l-60.16-53.76v203.52l-143.36-1.28-1.28-161.28c-117.76 181.76-110.080 171.52-176.64 153.6z"></path>
<path d="M208.64 576h139.52c0 32 10.24 29.44 84.48 168.96 78.080 143.787 79.36 133.973 34.56 216.32l-193.28-346.88c-183.040 354.133-160 343.467-261.12 336.64l101.12-189.44c86.613-156.587 91.307-157.013 94.72-185.6z"></path>
</svg>
