<!-- Generated by IcoMoon.io -->
<svg version="1.1" xmlns="http://www.w3.org/2000/svg" width="1024" height="1024" viewBox="0 0 1024 1024">
<title></title>
<g id="icomoon-ignore">
</g>
<path fill="#000" d="M512 85.333c-170.667 0-341.333 21.333-341.333 170.667v405.333c0 82.347 66.987 149.333 149.333 149.333l-64 64v21.333h95.147l85.333-85.333h160.853l85.333 85.333h85.333v-21.333l-64-64c82.347 0 149.333-66.987 149.333-149.333v-405.333c0-149.333-152.747-170.667-341.333-170.667zM320 725.333c-35.413 0-64-28.587-64-64s28.587-64 64-64 64 28.587 64 64-28.587 64-64 64zM469.333 426.667h-213.333v-170.667h213.333v170.667zM554.667 426.667v-170.667h213.333v170.667h-213.333zM704 725.333c-35.413 0-64-28.587-64-64s28.587-64 64-64 64 28.587 64 64-28.587 64-64 64z"></path>
</svg>
