<?xml version="1.0" encoding="UTF-8" standalone="no"?>
<!-- Created with Inkscape (http://www.inkscape.org/) -->

<svg
   xmlns:dc="http://purl.org/dc/elements/1.1/"
   xmlns:cc="http://creativecommons.org/ns#"
   xmlns:rdf="http://www.w3.org/1999/02/22-rdf-syntax-ns#"
   xmlns:svg="http://www.w3.org/2000/svg"
   xmlns="http://www.w3.org/2000/svg"
   xmlns:sodipodi="http://sodipodi.sourceforge.net/DTD/sodipodi-0.dtd"
   xmlns:inkscape="http://www.inkscape.org/namespaces/inkscape"
   width="138.14833mm"
   height="113.69397mm"
   viewBox="0 0 138.14833 113.69397"
   version="1.1"
   id="svg837"
   inkscape:version="0.92.4 (5da689c313, 2019-01-14)"
   sodipodi:docname="re.svg">
  <defs
     id="defs831">
    <inkscape:path-effect
       effect="spiro"
       id="path-effect1402"
       is_visible="true" />
    <inkscape:path-effect
       effect="spiro"
       id="path-effect1398"
       is_visible="true" />
  </defs>
  <sodipodi:namedview
     id="base"
     pagecolor="#ffffff"
     bordercolor="#666666"
     borderopacity="1.0"
     inkscape:pageopacity="0.0"
     inkscape:pageshadow="2"
     inkscape:zoom="0.49497475"
     inkscape:cx="515.6583"
     inkscape:cy="-16.046737"
     inkscape:document-units="mm"
     inkscape:current-layer="layer1"
     showgrid="false"
     inkscape:window-width="1366"
     inkscape:window-height="715"
     inkscape:window-x="-8"
     inkscape:window-y="-8"
     inkscape:window-maximized="1"
     fit-margin-top="0"
     fit-margin-left="0"
     fit-margin-right="0"
     fit-margin-bottom="0" />
  <metadata
     id="metadata834">
    <rdf:RDF>
      <cc:Work
         rdf:about="">
        <dc:format>image/svg+xml</dc:format>
        <dc:type
           rdf:resource="http://purl.org/dc/dcmitype/StillImage" />
        <dc:title></dc:title>
      </cc:Work>
    </rdf:RDF>
  </metadata>
  <g
     inkscape:label="Ebene 1"
     inkscape:groupmode="layer"
     id="layer1"
     transform="translate(-1.1358955,-7.5471014)">
    <path
       style="fill:#1a1a1a;stroke:none;stroke-width:0.26458332px;stroke-linecap:butt;stroke-linejoin:miter;stroke-opacity:1"
       d="m 63.610148,121.13665 c 3.358608,0 6.696534,-1.38261 9.071428,-3.75751 2.374895,-2.37489 3.757509,-5.71282 3.757509,-9.07143 0,-3.3586 -1.382614,-6.69653 -3.757509,-9.071425 -2.374894,-2.374895 -5.71282,-3.757509 -9.071428,-3.757509 -3.358608,0 -6.696534,1.382614 -9.071428,3.757509 -2.374895,2.374895 -3.757509,5.712825 -3.757509,9.071425 0,3.35861 1.382614,6.69654 3.757509,9.07143 2.374894,2.3749 5.71282,3.75751 9.071428,3.75751 z"
       id="path1396"
       inkscape:connector-curvature="0"
       inkscape:path-effect="#path-effect1398"
       inkscape:original-d="m 63.610148,121.13665 c -2.65e-4,8.55289 2.64e-4,-17.10551 0,-25.657874 -2.65e-4,-8.552362 2.64e-4,17.104984 0,25.657874 z" />
    <path
       style="fill:#1a1a1a;stroke:none;stroke-width:0.26458332px;stroke-linecap:butt;stroke-linejoin:miter;stroke-opacity:1"
       d="m 122.36979,121.24107 c 3.32733,0 6.63416,-1.36974 8.98694,-3.72251 2.35277,-2.35278 3.72251,-5.65961 3.72251,-8.98694 0,-3.32733 -1.36974,-6.63416 -3.72251,-8.986937 -2.35278,-2.352775 -5.65961,-3.722512 -8.98694,-3.722512 -3.32733,0 -6.63416,1.369737 -8.98694,3.722512 -2.35277,2.352777 -3.72251,5.659607 -3.72251,8.986937 0,3.32733 1.36974,6.63416 3.72251,8.98694 2.35278,2.35277 5.65961,3.72251 8.98694,3.72251 z"
       id="path1400"
       inkscape:connector-curvature="0"
       inkscape:path-effect="#path-effect1402"
       inkscape:original-d="m 122.36979,121.24107 c -2.6e-4,8.47323 2.6e-4,-16.9462 0,-25.418899 -2.6e-4,-8.472702 2.6e-4,16.945669 0,25.418899 z" />
    <path
       style="fill:#1a1a1a;stroke:none;stroke-width:0.26458332px;stroke-linecap:butt;stroke-linejoin:miter;stroke-opacity:1"
       d="m 71.24851,98.940476 v 17.764874 h 45.92411 V 98.84598 H 71.24851 Z"
       id="path1404"
       inkscape:connector-curvature="0" />
    <path
       style="fill:#ff2a2a;stroke:none;stroke-width:0.26458332px;stroke-linecap:butt;stroke-linejoin:miter;stroke-opacity:1"
       d="M 139.24742,21.445116 41.994724,21.044212 c -2.095399,-0.0086 -4.256966,0.745482 -5.980154,1.937704 -2.613048,1.80789 -4.188582,4.803378 -5.946749,7.450138 -3.193072,4.806879 -5.863407,9.963021 -8.285355,15.200956 -3.905901,8.447274 -7.388772,17.132668 -10.022607,26.058777 -0.798603,2.706479 -1.35171,5.530799 -1.737252,8.285356 -0.4009655,2.864752 1.469982,8.552624 1.469982,8.552624 l 127.754831,0.267269 z"
       id="path1406"
       inkscape:connector-curvature="0"
       sodipodi:nodetypes="cssssssccc" />
    <path
       style="fill:#666666;fill-opacity:1;stroke:none;stroke-width:0.26458332px;stroke-linecap:butt;stroke-linejoin:miter;stroke-opacity:1"
       d="m 36.01457,22.981916 c 0,0 6.267975,-5.44764 9.822153,-7.550364 5.347878,-3.163913 10.859394,-7.4509141 17.073015,-7.4835463 L 139.24742,7.5471014 V 21.445116 L 41.994724,21.044212 c -3.466318,-0.01429 -5.980154,1.937704 -5.980154,1.937704 z"
       id="path1408"
       inkscape:connector-curvature="0"
       sodipodi:nodetypes="cssccsc" />
    <path
       style="fill:#1a1a1a;stroke:none;stroke-width:0.26458332px;stroke-linecap:butt;stroke-linejoin:miter;stroke-opacity:1"
       d="m 63.972468,44.795387 0.0945,15.969493 -29.387649,4.063243 c 0,0 2.180383,-6.518991 3.779761,-9.543897 1.600733,-3.027469 2.990361,-6.495964 5.764138,-8.504465 1.485841,-1.075902 3.479324,-1.227822 5.291667,-1.511905 4.763601,-0.74669 14.457583,-0.472469 14.457583,-0.472469 z"
       id="path1410"
       inkscape:connector-curvature="0"
       sodipodi:nodetypes="cccsssc" />
    <path
       style="fill:#ffcc00;stroke:none;stroke-width:0.26458332px;stroke-linecap:butt;stroke-linejoin:miter;stroke-opacity:1"
       d="M 78.713541,46.779761 H 139.28422 V 43.188987 H 78.90253 v 3.590774 z"
       id="path1412"
       inkscape:connector-curvature="0" />
    <path
       style="fill:#1a1a1a;fill-opacity:1;stroke:none;stroke-width:0.26458332px;stroke-linecap:butt;stroke-linejoin:miter;stroke-opacity:1"
       d="M 120.29092,64.166665 H 94.683034 V 46.779761 h 25.796876 v 17.386904 z"
       id="path1414"
       inkscape:connector-curvature="0" />
    <path
       style="fill:#e6e6e6;stroke:none;stroke-width:0.26458332px;stroke-linecap:butt;stroke-linejoin:miter;stroke-opacity:1"
       d="m 15.875,88.451636 2.362351,5.858632 120.857889,0.472469 0.15218,-5.985703 z"
       id="path1416"
       inkscape:connector-curvature="0" />
    <path
       style="fill:#333333;stroke:none;stroke-width:0.26458332px;stroke-linecap:butt;stroke-linejoin:miter;stroke-opacity:1"
       d="m 1.1358955,87.928412 h 1.937704 l 0.1336349,2.271789 h 4.2763122 v -2.806329 l 3.7848684,-0.04073 0.224174,1.176623 4.382411,-0.07813 2.362351,5.858632 120.857889,0.472469 0.0854,4.571447 -98.288374,0.133633 -8.018085,12.294404 -13.363476,0.26726 2.138156,-5.87992 -5.750088,-7.248894 -8.4151964,-2.105544 c 0,0 -0.3340867,-2.405428 -0.200452,-2.33861 l 0.1336347,0.06682 -4.3431598,-0.200452 0.2004523,2.405425 H 1.3363476 Z"
       id="path1418"
       inkscape:connector-curvature="0"
       sodipodi:nodetypes="ccccccccccccccccccccccc" />
  </g>
</svg>
