<?xml version="1.0" encoding="UTF-8" standalone="no"?>
<!-- Created with Inkscape (http://www.inkscape.org/) -->

<svg
   xmlns:dc="http://purl.org/dc/elements/1.1/"
   xmlns:cc="http://creativecommons.org/ns#"
   xmlns:rdf="http://www.w3.org/1999/02/22-rdf-syntax-ns#"
   xmlns:svg="http://www.w3.org/2000/svg"
   xmlns="http://www.w3.org/2000/svg"
   xmlns:sodipodi="http://sodipodi.sourceforge.net/DTD/sodipodi-0.dtd"
   xmlns:inkscape="http://www.inkscape.org/namespaces/inkscape"
   width="129.29951mm"
   height="100.74107mm"
   viewBox="0 0 129.29951 100.74107"
   version="1.1"
   id="svg852"
   inkscape:version="0.92.4 (5da689c313, 2019-01-14)"
   sodipodi:docname="s.svg">
  <defs
     id="defs846">
    <inkscape:path-effect
       effect="spiro"
       id="path-effect5153"
       is_visible="true" />
    <inkscape:path-effect
       effect="spiro"
       id="path-effect5149"
       is_visible="true" />
    <inkscape:path-effect
       effect="bspline"
       id="path-effect5145"
       is_visible="true"
       weight="33.333333"
       steps="2"
       helper_size="0"
       apply_no_weight="true"
       apply_with_weight="true"
       only_selected="false" />
  </defs>
  <sodipodi:namedview
     id="base"
     pagecolor="#ffffff"
     bordercolor="#666666"
     borderopacity="1.0"
     inkscape:pageopacity="0.0"
     inkscape:pageshadow="2"
     inkscape:zoom="1.4"
     inkscape:cx="279.79557"
     inkscape:cy="180.81728"
     inkscape:document-units="mm"
     inkscape:current-layer="layer1"
     showgrid="false"
     inkscape:window-width="1366"
     inkscape:window-height="715"
     inkscape:window-x="-8"
     inkscape:window-y="-8"
     inkscape:window-maximized="1"
     fit-margin-top="0"
     fit-margin-left="0"
     fit-margin-right="0"
     fit-margin-bottom="0" />
  <metadata
     id="metadata849">
    <rdf:RDF>
      <cc:Work
         rdf:about="">
        <dc:format>image/svg+xml</dc:format>
        <dc:type
           rdf:resource="http://purl.org/dc/dcmitype/StillImage" />
        <dc:title></dc:title>
      </cc:Work>
    </rdf:RDF>
  </metadata>
  <g
     inkscape:label="Ebene 1"
     inkscape:groupmode="layer"
     id="layer1"
     transform="translate(-3.2731406,-7.4316671)">
    <path
       style="fill:#1a1a1a;fill-opacity:1;stroke:none;stroke-width:0.26458332px;stroke-linecap:butt;stroke-linejoin:miter;stroke-opacity:1"
       d="m 47.436012,107.87016 c 2.888218,-0.0186 5.751014,-1.22597 7.780173,-3.28136 2.029159,-2.0554 3.199691,-4.933474 3.181138,-7.821693 -0.01855,-2.888218 -1.225967,-5.751013 -3.281365,-7.780172 -2.055398,-2.029159 -4.93347,-3.199692 -7.821688,-3.181138 -2.888218,0.01855 -5.751014,1.225966 -7.780173,3.281365 -2.029159,2.055398 -3.199691,4.933469 -3.181138,7.821688 0.01855,2.888218 1.225967,5.75101 3.281365,7.78017 2.055398,2.02916 4.93347,3.19969 7.821688,3.18114 z"
       id="path5147"
       inkscape:connector-curvature="0"
       inkscape:path-effect="#path-effect5149"
       inkscape:original-d="m 47.436012,107.87016 c 3.051458,0.8637 -4.787434,-22.300853 -0.141742,-22.064363 7.149785,2.65e-4 -4.334611,20.797353 0.141742,22.064363 z"
       sodipodi:nodetypes="scs" />
    <path
       style="fill:#1a1a1a;stroke:none;stroke-width:0.26458332px;stroke-linecap:butt;stroke-linejoin:miter;stroke-opacity:1"
       d="m 101.95908,108.15364 c 2.83874,0.0124 5.66509,-1.14394 7.68113,-3.14249 2.01604,-1.99854 3.19694,-4.81471 3.20931,-7.65345 0.0124,-2.838741 -1.14394,-5.665093 -3.14249,-7.681132 -1.99854,-2.01604 -4.81471,-3.196938 -7.65345,-3.209308 -2.838741,-0.01237 -5.665093,1.14394 -7.681132,3.142486 -2.01604,1.998546 -3.196938,4.814713 -3.209308,7.653454 -0.01237,2.83874 1.14394,5.66509 3.142486,7.68113 1.998546,2.01604 4.814713,3.19694 7.653454,3.20931 z"
       id="path5151"
       inkscape:connector-curvature="0"
       inkscape:path-effect="#path-effect5153"
       inkscape:original-d="m 101.95908,108.15364 c -2.7e-4,6.09513 0.0948,-15.591777 0.0945,-21.68638 -2.7e-4,-6.094601 -0.0942,15.59125 -0.0945,21.68638 z"
       sodipodi:nodetypes="ccc" />
    <path
       style="fill:#1a1a1a;fill-opacity:1;stroke:none;stroke-width:0.26458332px;stroke-linecap:butt;stroke-linejoin:miter;stroke-opacity:1"
       d="M 56.223958,90.247022 H 93.738093 V 102.24777 H 56.318451 V 90.247022 Z"
       id="path5155"
       inkscape:connector-curvature="0" />
    <path
       style="fill:#ff2a2a;stroke:none;stroke-width:0.26458332px;stroke-linecap:butt;stroke-linejoin:miter;stroke-opacity:1"
       d="M 132.29841,18.906056 30.468726,18.772421 c -4.07419,-0.0053 -9.820917,10.234969 -13.363476,16.303441 -3.227916,5.529481 -5.445642,12.877726 -6.949008,19.37704 -0.9579486,4.141379 -2.0093747,15.384159 -1.7372521,24.187893 0.052369,1.694241 0.668174,4.944487 0.668174,4.944487 l 11.2253191,1.469981 112.119567,1.069078 z"
       id="path1408"
       inkscape:connector-curvature="0"
       sodipodi:nodetypes="csssscccc" />
    <path
       style="fill:#e6e6e6;stroke:none;stroke-width:0.26458332px;stroke-linecap:butt;stroke-linejoin:miter;stroke-opacity:1"
       d="m 20.744423,89.913361 111.695727,1.060973 -0.008,-4.849994 -112.119567,-1.069078 -11.2253193,-1.46998 0.4238325,4.81085 z"
       id="path1410"
       inkscape:connector-curvature="0"
       sodipodi:nodetypes="ccccccc" />
    <path
       style="fill:#ffd42a;stroke:none;stroke-width:0.26458332px;stroke-linecap:butt;stroke-linejoin:miter;stroke-opacity:1"
       d="m 60.854166,29.865328 0.09449,2.645833 71.248514,0.188986 v -2.740326 z"
       id="path1412"
       inkscape:connector-curvature="0" />
    <path
       style="fill:#4d4d4d;stroke:none;stroke-width:0.26458332px;stroke-linecap:butt;stroke-linejoin:miter;stroke-opacity:1"
       d="M 77.012648,18.809523 79.280506,7.5647316 132.38616,7.9427077 132.29841,18.906056 Z"
       id="path1414"
       inkscape:connector-curvature="0" />
    <path
       style="fill:#4d4d4d;stroke:none;stroke-width:0.26458332px;stroke-linecap:butt;stroke-linejoin:miter;stroke-opacity:1"
       d="m 8.2853553,76.703091 -4.8776689,-0.06682 0.1336347,8.018087 5.6293644,-0.01669 z"
       id="path1416"
       inkscape:connector-curvature="0" />
    <path
       style="fill:#1a1a1a;stroke:none;stroke-width:0.26458332px;stroke-linecap:butt;stroke-linejoin:miter;stroke-opacity:1"
       d="m 82.987189,44.163027 0.03914,24.171677 31.844211,-0.05535 0.0162,-24.131148 z"
       id="path1420"
       inkscape:connector-curvature="0"
       sodipodi:nodetypes="ccccc" />
    <path
       style="fill:#1a1a1a;stroke:none;stroke-width:0.26458332px;stroke-linecap:butt;stroke-linejoin:miter;stroke-opacity:1"
       d="m 132.43205,44.29666 h -8.88671 l 0.4009,24.254711 8.46624,-0.0081 z"
       id="path1424"
       inkscape:connector-curvature="0"
       sodipodi:nodetypes="ccccc" />
    <path
       style="fill:#1a1a1a;stroke:none;stroke-width:0.26458332px;stroke-linecap:butt;stroke-linejoin:miter;stroke-opacity:1"
       d="M 43.164029,33.071342 V 52.314747 H 55.191157 V 33.204975 H 43.164029 Z"
       id="path5129"
       inkscape:connector-curvature="0" />
    <rect
       style="opacity:0;fill:#f5f1da;fill-opacity:1;stroke:#000000;stroke-width:0.26458332;stroke-opacity:1"
       id="rect5135"
       width="35.947754"
       height="25.256977"
       x="25.524239"
       y="82.78347"
       rx="0"
       ry="6.2474275" />
    <path
       style="fill:#ff5555;stroke:#000000;stroke-width:0.26458332px;stroke-linecap:butt;stroke-linejoin:miter;stroke-opacity:1"
       d="m 12.027129,71.558152 c 1.228413,0.09474 2.8299,-1.2318 2.939964,-2.539061 0.110064,-1.307261 -1.21053,-3.042127 -2.53906,-3.073598 -1.324044,-0.03136 -2.6506311,1.615733 -2.6726953,2.939965 -0.019479,1.169089 1.0433783,2.577953 2.2717913,2.672694 z"
       id="path5157"
       inkscape:connector-curvature="0"
       sodipodi:nodetypes="zzssz" />
  </g>
</svg>
